<?xml version="1.0" standalone="no"?><!DOCTYPE svg PUBLIC "-//W3C//DTD SVG 1.1//EN" "http://www.w3.org/Graphics/SVG/1.1/DTD/svg11.dtd"><svg width="20" height="20" viewBox="0 0 20 20" version="1.1" xmlns="http://www.w3.org/2000/svg" xmlns:xlink="http://www.w3.org/1999/xlink"><defs><style type="text/css"><![CDATA[
@font-face { font-family: ifont; src: url("//at.alicdn.com/t/font_1442373896_4754455.eot?#iefix") format("embedded-opentype"), url("//at.alicdn.com/t/font_1442373896_4754455.woff") format("woff"), url("//at.alicdn.com/t/font_1442373896_4754455.ttf") format("truetype"), url("//at.alicdn.com/t/font_1442373896_4754455.svg#ifont") format("svg"); }

]]></style></defs><g class="transform-group"><g transform="scale(0.015625, 0.015625)"><path d="M963.8 1024l-60.2 0-60.2 0-60.2 0-60.2 0-60.2 0-60.2 0-60.2 0 0-60.2 0-60.2 0-60.2 0-60.2 0-60.2 60.2 0 60.2 0 60.2 0 60.2 0 0 60.2 0 60.2 0 60.2-60.2 0-60.2 0 0-60.2 60.2 0 0-60.2-60.2 0-60.2 0 0 60.2 0 60.2 0 60.2 60.2 0 60.2 0 60.2 0 60.2 0 60.2 0 60.2 0 60.2 0 0 60.2L963.8 1024zM361.4 1024l-60.2 0-60.2 0-60.2 0-60.2 0L60.2 1024 0 1024l0-60.2 60.2 0 60.2 0 60.2 0 60.2 0 60.2 0 60.2 0 60.2 0 0-60.2 0-60.2 0-60.2-60.2 0-60.2 0 0 60.2 60.2 0 0 60.2-60.2 0-60.2 0 0-60.2 0-60.2 0-60.2 60.2 0 60.2 0 60.2 0 60.2 0 0 60.2 0 60.2 0 60.2 0 60.2 0 60.2-60.2 0L361.4 1024z" fill="#000000"></path></g></g></svg>
