<?xml version="1.0" standalone="no"?><!DOCTYPE svg PUBLIC "-//W3C//DTD SVG 1.1//EN" "http://www.w3.org/Graphics/SVG/1.1/DTD/svg11.dtd"><svg width="32" height="32" viewBox="0 0 32 32" version="1.1" xmlns="http://www.w3.org/2000/svg" xmlns:xlink="http://www.w3.org/1999/xlink"><defs><style type="text/css"><![CDATA[
@font-face { font-family: ifont; src: url("//at.alicdn.com/t/font_1442373896_4754455.eot?#iefix") format("embedded-opentype"), url("//at.alicdn.com/t/font_1442373896_4754455.woff") format("woff"), url("//at.alicdn.com/t/font_1442373896_4754455.ttf") format("truetype"), url("//at.alicdn.com/t/font_1442373896_4754455.svg#ifont") format("svg"); }

]]></style></defs><g class="transform-group"><g transform="scale(0.03125, 0.03125)"><path d="M233.488799 518.786567c0 0 45.266973-108.932991 169.557744-68.060095s264.422322 120.359228 314.892807 113.431445c50.470485-6.927783 121.112382-68.058049 121.112382-68.058049s-45.410236 90.744747-121.112382 90.744747S407.408897 468.64354 354.60118 473.41317C301.793464 478.180753 233.488799 518.786567 233.488799 518.786567zM354.60118 446.119547c0 0 45.266973-108.932991 169.557744-68.060095s264.422322 120.359228 314.892807 113.431445c50.469462-6.927783 121.112382-68.058049 121.112382-68.058049s-45.410236 90.744747-121.112382 90.744747S528.521279 395.97652 475.713562 400.74615C422.906869 405.51271 354.60118 446.119547 354.60118 446.119547zM63.931055 591.45154c0 0 45.266973-108.930945 169.557744-68.058049s264.422322 120.359228 314.892807 113.431445c50.470485-6.927783 121.112382-68.058049 121.112382-68.058049s-45.410236 90.744747-121.112382 90.744747S237.854223 541.311583 185.043437 546.081213C132.236743 550.847773 63.931055 591.45154 63.931055 591.45154z" fill="#b9b9b9"></path></g></g></svg>
